<?xml version="1.0" encoding="UTF-8"?>
<!--Generator: Apple Native CoreSVG 123-->
<!DOCTYPE svg
PUBLIC "-//W3C//DTD SVG 1.1//EN"
       "http://www.w3.org/Graphics/SVG/1.1/DTD/svg11.dtd">
<svg version="1.1" xmlns="http://www.w3.org/2000/svg" xmlns:xlink="http://www.w3.org/1999/xlink" width="3300" height="2200">
 <!--glyph: "uni10075E.medium", point size: 100.000000, font version: "Version 15.0d7e11", template writer version: "5"-->
 <g id="Notes">
  <rect height="2200" id="artboard" style="fill:white;opacity:1" width="3300" x="0" y="0"/>
  <line id="" style="fill:none;stroke:black;opacity:1;stroke-width:0.5;" x1="263" x2="3036" y1="292" y2="292"/>
  <text style="stroke:none;fill:black;font-family:-apple-system,&quot;SF Pro Display&quot;,&quot;SF Pro Text&quot;,Helvetica,sans-serif;font-weight:bold;" transform="matrix(1 0 0 1 263 322)">Weight/Scale Variations</text>
  <text style="stroke:none;fill:black;font-family:-apple-system,&quot;SF Pro Display&quot;,&quot;SF Pro Text&quot;,Helvetica,sans-serif;text-anchor:middle;" transform="matrix(1 0 0 1 559.711 322)">Ultralight</text>
  <text style="stroke:none;fill:black;font-family:-apple-system,&quot;SF Pro Display&quot;,&quot;SF Pro Text&quot;,Helvetica,sans-serif;text-anchor:middle;" transform="matrix(1 0 0 1 856.422 322)">Thin</text>
  <text style="stroke:none;fill:black;font-family:-apple-system,&quot;SF Pro Display&quot;,&quot;SF Pro Text&quot;,Helvetica,sans-serif;text-anchor:middle;" transform="matrix(1 0 0 1 1153.13 322)">Light</text>
  <text style="stroke:none;fill:black;font-family:-apple-system,&quot;SF Pro Display&quot;,&quot;SF Pro Text&quot;,Helvetica,sans-serif;text-anchor:middle;" transform="matrix(1 0 0 1 1449.84 322)">Regular</text>
  <text style="stroke:none;fill:black;font-family:-apple-system,&quot;SF Pro Display&quot;,&quot;SF Pro Text&quot;,Helvetica,sans-serif;text-anchor:middle;" transform="matrix(1 0 0 1 1746.56 322)">Medium</text>
  <text style="stroke:none;fill:black;font-family:-apple-system,&quot;SF Pro Display&quot;,&quot;SF Pro Text&quot;,Helvetica,sans-serif;text-anchor:middle;" transform="matrix(1 0 0 1 2043.27 322)">Semibold</text>
  <text style="stroke:none;fill:black;font-family:-apple-system,&quot;SF Pro Display&quot;,&quot;SF Pro Text&quot;,Helvetica,sans-serif;text-anchor:middle;" transform="matrix(1 0 0 1 2339.98 322)">Bold</text>
  <text style="stroke:none;fill:black;font-family:-apple-system,&quot;SF Pro Display&quot;,&quot;SF Pro Text&quot;,Helvetica,sans-serif;text-anchor:middle;" transform="matrix(1 0 0 1 2636.69 322)">Heavy</text>
  <text style="stroke:none;fill:black;font-family:-apple-system,&quot;SF Pro Display&quot;,&quot;SF Pro Text&quot;,Helvetica,sans-serif;text-anchor:middle;" transform="matrix(1 0 0 1 2933.4 322)">Black</text>
  <line id="" style="fill:none;stroke:black;opacity:1;stroke-width:0.5;" x1="263" x2="3036" y1="1903" y2="1903"/>
  <g id="" transform="matrix(1 0 0 1 263 1933)">
   <path d="M 9.24805 0.830078 C 13.5547 0.830078 17.1387 -2.74414 17.1387 -7.05078 C 17.1387 -11.3574 13.5449 -14.9316 9.23828 -14.9316 C 4.94141 -14.9316 1.36719 -11.3574 1.36719 -7.05078 C 1.36719 -2.74414 4.95117 0.830078 9.24805 0.830078 Z M 9.24805 -0.654297 C 5.70312 -0.654297 2.87109 -3.49609 2.87109 -7.05078 C 2.87109 -10.6055 5.69336 -13.4473 9.23828 -13.4473 C 12.793 -13.4473 15.6348 -10.6055 15.6445 -7.05078 C 15.6543 -3.49609 12.8027 -0.654297 9.24805 -0.654297 Z M 9.22852 -3.42773 C 9.69727 -3.42773 9.9707 -3.74023 9.9707 -4.25781 L 9.9707 -6.31836 L 12.1973 -6.31836 C 12.6953 -6.31836 13.0371 -6.57227 13.0371 -7.04102 C 13.0371 -7.51953 12.7148 -7.7832 12.1973 -7.7832 L 9.9707 -7.7832 L 9.9707 -10.0098 C 9.9707 -10.5273 9.69727 -10.8496 9.22852 -10.8496 C 8.75977 -10.8496 8.50586 -10.5078 8.50586 -10.0098 L 8.50586 -7.7832 L 6.29883 -7.7832 C 5.78125 -7.7832 5.44922 -7.51953 5.44922 -7.04102 C 5.44922 -6.57227 5.80078 -6.31836 6.29883 -6.31836 L 8.50586 -6.31836 L 8.50586 -4.25781 C 8.50586 -3.75977 8.75977 -3.42773 9.22852 -3.42773 Z"/>
  </g>
  <g id="" transform="matrix(1 0 0 1 281.506 1933)">
   <path d="M 11.709 2.91016 C 17.1582 2.91016 21.6699 -1.60156 21.6699 -7.05078 C 21.6699 -12.4902 17.1484 -17.0117 11.6992 -17.0117 C 6.25977 -17.0117 1.74805 -12.4902 1.74805 -7.05078 C 1.74805 -1.60156 6.26953 2.91016 11.709 2.91016 Z M 11.709 1.25 C 7.09961 1.25 3.41797 -2.44141 3.41797 -7.05078 C 3.41797 -11.6504 7.08984 -15.3516 11.6992 -15.3516 C 16.3086 -15.3516 20 -11.6504 20.0098 -7.05078 C 20.0195 -2.44141 16.3184 1.25 11.709 1.25 Z M 11.6895 -2.41211 C 12.207 -2.41211 12.5195 -2.77344 12.5195 -3.33984 L 12.5195 -6.23047 L 15.5762 -6.23047 C 16.123 -6.23047 16.5039 -6.51367 16.5039 -7.03125 C 16.5039 -7.55859 16.1426 -7.86133 15.5762 -7.86133 L 12.5195 -7.86133 L 12.5195 -10.9277 C 12.5195 -11.5039 12.207 -11.8555 11.6895 -11.8555 C 11.1719 -11.8555 10.8789 -11.4844 10.8789 -10.9277 L 10.8789 -7.86133 L 7.83203 -7.86133 C 7.26562 -7.86133 6.89453 -7.55859 6.89453 -7.03125 C 6.89453 -6.51367 7.28516 -6.23047 7.83203 -6.23047 L 10.8789 -6.23047 L 10.8789 -3.33984 C 10.8789 -2.79297 11.1719 -2.41211 11.6895 -2.41211 Z"/>
  </g>
  <g id="" transform="matrix(1 0 0 1 304.924 1933)">
   <path d="M 14.9707 5.67383 C 21.9336 5.67383 27.6953 -0.078125 27.6953 -7.04102 C 27.6953 -14.0039 21.9238 -19.7559 14.9609 -19.7559 C 8.00781 -19.7559 2.25586 -14.0039 2.25586 -7.04102 C 2.25586 -0.078125 8.01758 5.67383 14.9707 5.67383 Z M 14.9707 3.85742 C 8.93555 3.85742 4.08203 -1.00586 4.08203 -7.04102 C 4.08203 -13.0762 8.92578 -17.9395 14.9609 -17.9395 C 21.0059 -17.9395 25.8594 -13.0762 25.8691 -7.04102 C 25.8789 -1.00586 21.0156 3.85742 14.9707 3.85742 Z M 14.9512 -1.06445 C 15.5176 -1.06445 15.8691 -1.45508 15.8691 -2.06055 L 15.8691 -6.13281 L 20.1074 -6.13281 C 20.6934 -6.13281 21.1133 -6.46484 21.1133 -7.02148 C 21.1133 -7.59766 20.7227 -7.93945 20.1074 -7.93945 L 15.8691 -7.93945 L 15.8691 -12.1875 C 15.8691 -12.8027 15.5176 -13.1934 14.9512 -13.1934 C 14.3848 -13.1934 14.0625 -12.7832 14.0625 -12.1875 L 14.0625 -7.93945 L 9.83398 -7.93945 C 9.21875 -7.93945 8.80859 -7.59766 8.80859 -7.02148 C 8.80859 -6.46484 9.23828 -6.13281 9.83398 -6.13281 L 14.0625 -6.13281 L 14.0625 -2.06055 C 14.0625 -1.47461 14.3848 -1.06445 14.9512 -1.06445 Z"/>
  </g>
  <text style="stroke:none;fill:black;font-family:-apple-system,&quot;SF Pro Display&quot;,&quot;SF Pro Text&quot;,Helvetica,sans-serif;font-weight:bold;" transform="matrix(1 0 0 1 263 1953)">Design Variations</text>
  <text style="stroke:none;fill:black;font-family:-apple-system,&quot;SF Pro Display&quot;,&quot;SF Pro Text&quot;,Helvetica,sans-serif;" transform="matrix(1 0 0 1 263 1971)">Symbols are supported in up to nine weights and three scales.</text>
  <text style="stroke:none;fill:black;font-family:-apple-system,&quot;SF Pro Display&quot;,&quot;SF Pro Text&quot;,Helvetica,sans-serif;" transform="matrix(1 0 0 1 263 1989)">For optimal layout with text and other symbols, vertically align</text>
  <text style="stroke:none;fill:black;font-family:-apple-system,&quot;SF Pro Display&quot;,&quot;SF Pro Text&quot;,Helvetica,sans-serif;" transform="matrix(1 0 0 1 263 2007)">symbols with the adjacent text.</text>
  <rect height="14" id="" style="fill:#00AEEF;stroke:none;opacity:0.4;" width="3" x="776" y="1919"/>
  <g id="" transform="matrix(1 0 0 1 779 1933)">
   <path d="M 10.5273 0 L 12.373 0 L 7.17773 -14.0918 L 5.43945 -14.0918 L 0.244141 0 L 2.08984 0 L 3.50586 -4.0332 L 9.11133 -4.0332 Z M 6.2793 -11.9531 L 6.33789 -11.9531 L 8.59375 -5.52734 L 4.02344 -5.52734 Z"/>
  </g>
  <rect height="14" id="" style="fill:#00AEEF;stroke:none;opacity:0.4;" width="3" x="791.617" y="1919"/>
  <text style="stroke:none;fill:black;font-family:-apple-system,&quot;SF Pro Display&quot;,&quot;SF Pro Text&quot;,Helvetica,sans-serif;font-weight:bold;" transform="matrix(1 0 0 1 776 1953)">Margins</text>
  <text style="stroke:none;fill:black;font-family:-apple-system,&quot;SF Pro Display&quot;,&quot;SF Pro Text&quot;,Helvetica,sans-serif;" transform="matrix(1 0 0 1 776 1971)">Leading and trailing margins on the left and right side of each symbol</text>
  <text style="stroke:none;fill:black;font-family:-apple-system,&quot;SF Pro Display&quot;,&quot;SF Pro Text&quot;,Helvetica,sans-serif;" transform="matrix(1 0 0 1 776 1989)">can be adjusted by modifying the width of the blue rectangles.</text>
  <text style="stroke:none;fill:black;font-family:-apple-system,&quot;SF Pro Display&quot;,&quot;SF Pro Text&quot;,Helvetica,sans-serif;" transform="matrix(1 0 0 1 776 2007)">Modifications are automatically applied proportionally to all</text>
  <text style="stroke:none;fill:black;font-family:-apple-system,&quot;SF Pro Display&quot;,&quot;SF Pro Text&quot;,Helvetica,sans-serif;" transform="matrix(1 0 0 1 776 2025)">scales and weights.</text>
  <g id="" transform="matrix(1 0 0 1 1289 1933)">
   <path d="M 2.83203 3.11523 L 4.375 4.6582 C 5.22461 5.48828 6.19141 5.41992 7.06055 4.46289 L 17.2754 -6.66016 C 17.7051 -6.36719 18.0957 -6.37695 18.5645 -6.47461 L 19.6094 -6.68945 L 20.3027 -5.99609 L 20.2539 -5.47852 C 20.1855 -4.95117 20.3516 -4.53125 20.8496 -4.0332 L 21.6602 -3.22266 C 22.168 -2.71484 22.8223 -2.68555 23.3008 -3.16406 L 26.5527 -6.41602 C 27.0312 -6.89453 27.0117 -7.54883 26.5039 -8.05664 L 25.6836 -8.87695 C 25.1855 -9.375 24.7754 -9.55078 24.2383 -9.47266 L 23.7109 -9.41406 L 23.0566 -10.0781 L 23.3398 -11.2207 C 23.4863 -11.7871 23.3398 -12.2559 22.7148 -12.8613 L 20.3027 -15.2539 C 16.7578 -18.7793 12.2266 -18.6719 9.11133 -15.5371 C 8.69141 -15.1074 8.64258 -14.5215 8.91602 -14.0918 C 9.15039 -13.7207 9.62891 -13.4961 10.2734 -13.6621 C 11.7871 -14.043 13.3008 -13.9258 14.7852 -12.9199 L 14.1602 -11.3379 C 13.9258 -10.752 13.9453 -10.2734 14.1797 -9.83398 L 3.01758 0.439453 C 2.08008 1.30859 1.97266 2.25586 2.83203 3.11523 Z M 10.6738 -15.1465 C 13.3398 -17.1387 16.6504 -16.8262 19.0527 -14.4141 L 21.6797 -11.8066 C 21.9141 -11.5723 21.9434 -11.3867 21.8848 -11.0938 L 21.5039 -9.53125 L 23.0762 -7.95898 L 24.043 -8.04688 C 24.3262 -8.07617 24.4141 -8.05664 24.6387 -7.83203 L 25.2637 -7.20703 L 22.5098 -4.46289 L 21.8848 -5.07812 C 21.6602 -5.30273 21.6406 -5.40039 21.6699 -5.68359 L 21.7578 -6.64062 L 20.1953 -8.20312 L 18.5742 -7.89062 C 18.291 -7.83203 18.1445 -7.83203 17.9102 -8.07617 L 15.7324 -10.2539 C 15.5078 -10.4883 15.4785 -10.625 15.6055 -10.9473 L 16.5527 -13.2227 C 14.9512 -14.7559 12.8418 -15.6055 10.8008 -14.9512 C 10.7129 -14.9219 10.6445 -14.9414 10.6152 -14.9805 C 10.5859 -15.0293 10.5859 -15.0781 10.6738 -15.1465 Z M 4.10156 2.41211 C 3.61328 1.91406 3.78906 1.61133 4.12109 1.30859 L 15.0781 -8.80859 L 16.3086 -7.57812 L 6.15234 3.34961 C 5.84961 3.68164 5.46875 3.7793 5.06836 3.37891 Z"/>
  </g>
  <text style="stroke:none;fill:black;font-family:-apple-system,&quot;SF Pro Display&quot;,&quot;SF Pro Text&quot;,Helvetica,sans-serif;font-weight:bold;" transform="matrix(1 0 0 1 1289 1953)">Exporting</text>
  <text style="stroke:none;fill:black;font-family:-apple-system,&quot;SF Pro Display&quot;,&quot;SF Pro Text&quot;,Helvetica,sans-serif;" transform="matrix(1 0 0 1 1289 1971)">Symbols should be outlined when exporting to ensure the</text>
  <text style="stroke:none;fill:black;font-family:-apple-system,&quot;SF Pro Display&quot;,&quot;SF Pro Text&quot;,Helvetica,sans-serif;" transform="matrix(1 0 0 1 1289 1989)">design is preserved when submitting to Xcode.</text>
  <text id="template-version" style="stroke:none;fill:black;font-family:-apple-system,&quot;SF Pro Display&quot;,&quot;SF Pro Text&quot;,Helvetica,sans-serif;text-anchor:end;" transform="matrix(1 0 0 1 3036 1933)">Template v.1.0</text>
  <text style="stroke:none;fill:black;font-family:-apple-system,&quot;SF Pro Display&quot;,&quot;SF Pro Text&quot;,Helvetica,sans-serif;text-anchor:end;" transform="matrix(1 0 0 1 3036 1951)">Generated from hexagon.fill</text>
  <text style="stroke:none;fill:black;font-family:-apple-system,&quot;SF Pro Display&quot;,&quot;SF Pro Text&quot;,Helvetica,sans-serif;text-anchor:end;" transform="matrix(1 0 0 1 3036 1969)">Typeset at 100 points</text>
  <text style="stroke:none;fill:black;font-family:-apple-system,&quot;SF Pro Display&quot;,&quot;SF Pro Text&quot;,Helvetica,sans-serif;" transform="matrix(1 0 0 1 263 726)">Small</text>
  <text style="stroke:none;fill:black;font-family:-apple-system,&quot;SF Pro Display&quot;,&quot;SF Pro Text&quot;,Helvetica,sans-serif;" transform="matrix(1 0 0 1 263 1156)">Medium</text>
  <text style="stroke:none;fill:black;font-family:-apple-system,&quot;SF Pro Display&quot;,&quot;SF Pro Text&quot;,Helvetica,sans-serif;" transform="matrix(1 0 0 1 263 1586)">Large</text>
 </g>
 <g id="Guides">
  <g id="H-reference" style="fill:#27AAE1;stroke:none;" transform="matrix(1 0 0 1 339 696)">
   <path d="M 54.9316 0 L 57.666 0 L 30.5664 -70.459 L 28.0762 -70.459 L 0.976562 0 L 3.66211 0 L 12.9395 -24.4629 L 45.7031 -24.4629 Z M 29.1992 -67.0898 L 29.4434 -67.0898 L 44.8242 -26.709 L 13.8184 -26.709 Z"/>
  </g>
  <line id="Baseline-S" style="fill:none;stroke:#27AAE1;opacity:1;stroke-width:0.577;" x1="263" x2="3036" y1="696" y2="696"/>
  <line id="Capline-S" style="fill:none;stroke:#27AAE1;opacity:1;stroke-width:0.577;" x1="263" x2="3036" y1="625.541" y2="625.541"/>
  <g id="H-reference" style="fill:#27AAE1;stroke:none;" transform="matrix(1 0 0 1 339 1126)">
   <path d="M 54.9316 0 L 57.666 0 L 30.5664 -70.459 L 28.0762 -70.459 L 0.976562 0 L 3.66211 0 L 12.9395 -24.4629 L 45.7031 -24.4629 Z M 29.1992 -67.0898 L 29.4434 -67.0898 L 44.8242 -26.709 L 13.8184 -26.709 Z"/>
  </g>
  <line id="Baseline-M" style="fill:none;stroke:#27AAE1;opacity:1;stroke-width:0.577;" x1="263" x2="3036" y1="1126" y2="1126"/>
  <line id="Capline-M" style="fill:none;stroke:#27AAE1;opacity:1;stroke-width:0.577;" x1="263" x2="3036" y1="1055.54" y2="1055.54"/>
  <g id="H-reference" style="fill:#27AAE1;stroke:none;" transform="matrix(1 0 0 1 339 1556)">
   <path d="M 54.9316 0 L 57.666 0 L 30.5664 -70.459 L 28.0762 -70.459 L 0.976562 0 L 3.66211 0 L 12.9395 -24.4629 L 45.7031 -24.4629 Z M 29.1992 -67.0898 L 29.4434 -67.0898 L 44.8242 -26.709 L 13.8184 -26.709 Z"/>
  </g>
  <line id="Baseline-L" style="fill:none;stroke:#27AAE1;opacity:1;stroke-width:0.577;" x1="263" x2="3036" y1="1556" y2="1556"/>
  <line id="Capline-L" style="fill:none;stroke:#27AAE1;opacity:1;stroke-width:0.577;" x1="263" x2="3036" y1="1485.54" y2="1485.54"/>
  <rect height="119.336" id="left-margin" style="fill:#00AEEF;stroke:none;opacity:0.4;" width="12.4512" x="1388.1" y="1030.79"/>
  <rect height="119.336" id="right-margin" style="fill:#00AEEF;stroke:none;opacity:0.4;" width="12.4512" x="1499.14" y="1030.79"/>
 </g>
 <g id="Symbols">
  <g id="Black-L" transform="matrix(1 0 0 1 2851.17 1556)">
   <path d="M 26.123 6.93359 L 70.2148 30.4199 C 78.418 34.8145 86.0352 34.8145 94.2383 30.4199 L 138.281 6.93359 C 145.361 3.125 148.389 -1.2207 148.389 -10.0098 L 148.389 -63.7207 C 148.389 -71.9727 145.312 -76.6113 138.428 -80.2734 L 95.8496 -103.125 C 87.2559 -107.764 77.1973 -107.764 68.6035 -103.125 L 26.0254 -80.2734 C 19.1406 -76.6113 16.0645 -71.9727 16.0645 -63.7207 L 16.0645 -10.0098 C 16.0645 -1.2207 19.0918 3.125 26.123 6.93359 Z"/>
  </g>
  <g id="Heavy-L" transform="matrix(1 0 0 1 2555.17 1556)">
   <path d="M 25.6836 6.10352 L 70.0684 30.0781 C 77.8809 34.2773 85.1562 34.2773 92.9688 30.0781 L 137.354 6.10352 C 144.043 2.49023 146.973 -1.5625 146.973 -10.1562 L 146.973 -63.1348 C 146.973 -71.1914 143.994 -75.3906 137.598 -78.8574 L 94.3359 -102.393 C 86.1816 -106.836 76.9043 -106.836 68.75 -102.393 L 25.4395 -78.8574 C 19.043 -75.3906 16.0645 -71.1914 16.0645 -63.1348 L 16.0645 -10.1562 C 16.0645 -1.5625 18.9941 2.49023 25.6836 6.10352 Z"/>
  </g>
  <g id="Bold-L" transform="matrix(1 0 0 1 2259.24 1556)">
   <path d="M 25.1953 5.22461 L 69.9219 29.7363 C 77.2949 33.7402 84.2285 33.7402 91.5527 29.7363 L 136.279 5.22461 C 142.529 1.75781 145.41 -1.95312 145.41 -10.3516 L 145.41 -62.4512 C 145.41 -70.3613 142.48 -74.0723 136.719 -77.2461 L 92.627 -101.562 C 84.9609 -105.811 76.5625 -105.811 68.8477 -101.562 L 24.7559 -77.2461 C 18.9941 -74.0723 16.0645 -70.3613 16.0645 -62.4512 L 16.0645 -10.3516 C 16.0645 -1.95312 18.9453 1.75781 25.1953 5.22461 Z"/>
  </g>
  <g id="Semibold-L" transform="matrix(1 0 0 1 1963.07 1556)">
   <path d="M 24.8047 4.58984 L 69.8242 29.4434 C 76.8555 33.3496 83.5449 33.3496 90.5762 29.4434 L 135.547 4.58984 C 141.504 1.26953 144.336 -2.24609 144.336 -10.498 L 144.336 -62.0117 C 144.336 -69.7266 141.455 -73.1445 136.084 -76.123 L 91.4551 -100.977 C 84.082 -105.078 76.3184 -105.078 68.9453 -100.977 L 24.2676 -76.123 C 18.9453 -73.1445 16.0645 -69.7266 16.0645 -62.0117 L 16.0645 -10.498 C 16.0645 -2.24609 18.8477 1.26953 24.8047 4.58984 Z"/>
  </g>
  <g id="Medium-L" transform="matrix(1 0 0 1 1666.77 1556)">
   <path d="M 24.5605 4.15039 L 69.7266 29.2969 C 76.5625 33.0566 83.0566 33.0566 89.8438 29.2969 L 135.01 4.15039 C 140.723 0.927734 143.506 -2.44141 143.506 -10.5957 L 143.506 -61.6699 C 143.506 -69.2871 140.674 -72.4121 135.645 -75.293 L 90.5762 -100.537 C 83.4473 -104.541 76.123 -104.541 68.9941 -100.537 L 23.9258 -75.293 C 18.8965 -72.4121 16.0645 -69.2871 16.0645 -61.6699 L 16.0645 -10.5957 C 16.0645 -2.44141 18.7988 0.927734 24.5605 4.15039 Z"/>
  </g>
  <g id="Regular-L" transform="matrix(1 0 0 1 1370.6 1556)">
   <path d="M 24.2188 3.56445 L 69.6289 29.0039 C 76.123 32.7148 82.373 32.7148 88.8672 29.0039 L 134.277 3.56445 C 139.746 0.439453 142.432 -2.68555 142.432 -10.7422 L 142.432 -61.1816 C 142.432 -68.7012 139.648 -71.4844 135.01 -74.1699 L 89.4043 -99.9512 C 82.6172 -103.809 75.9277 -103.857 69.043 -99.9512 L 23.4863 -74.1699 C 18.8477 -71.4844 16.0645 -68.7012 16.0645 -61.1816 L 16.0645 -10.7422 C 16.0645 -2.68555 18.75 0.439453 24.2188 3.56445 Z"/>
  </g>
  <g id="Light-L" transform="matrix(1 0 0 1 1074.47 1556)">
   <path d="M 23.291 2.24609 L 70.8984 28.6133 C 76.123 31.543 81.2012 31.543 86.377 28.6133 L 134.033 2.24609 C 139.062 -0.585938 141.26 -3.51562 141.26 -10.2539 L 141.26 -62.5977 C 141.26 -68.457 138.965 -70.8496 135.205 -72.998 L 87.3047 -99.8047 C 81.6406 -103.027 75.7324 -103.076 70.0195 -99.8047 L 22.0703 -72.998 C 18.3594 -70.8496 16.0645 -68.457 16.0645 -62.5977 L 16.0645 -10.2539 C 16.0645 -3.51562 18.2617 -0.585938 23.291 2.24609 Z"/>
  </g>
  <g id="Thin-L" transform="matrix(1 0 0 1 778.541 1556)">
   <path d="M 22.0215 0.488281 L 72.6074 28.0762 C 76.123 30.0293 79.6875 30.0293 83.1055 28.0762 L 133.74 0.488281 C 138.135 -1.95312 139.697 -4.58984 139.697 -9.57031 L 139.697 -64.4531 C 139.697 -68.1152 137.988 -70.0195 135.498 -71.3867 L 84.4727 -99.6582 C 80.2734 -101.953 75.4883 -102.051 71.2891 -99.6582 L 20.2637 -71.3867 C 17.7734 -70.0195 16.0645 -68.1152 16.0645 -64.4531 L 16.0645 -9.57031 C 16.0645 -4.58984 17.627 -1.95312 22.0215 0.488281 Z"/>
  </g>
  <g id="Ultralight-L" transform="matrix(1 0 0 1 482.245 1556)">
   <path d="M 21.3867 -0.390625 L 73.4863 27.7832 C 76.123 29.248 78.9062 29.248 81.4453 27.7832 L 133.545 -0.390625 C 137.695 -2.63672 138.867 -5.12695 138.867 -9.22852 L 138.867 -65.3809 C 138.867 -67.9199 137.5 -69.5801 135.645 -70.6055 L 83.0078 -99.5605 C 79.5898 -101.416 75.3418 -101.514 71.9727 -99.5605 L 19.2871 -70.6055 C 17.4316 -69.5801 16.0645 -67.9199 16.0645 -65.3809 L 16.0645 -9.22852 C 16.0645 -5.12695 17.2852 -2.63672 21.3867 -0.390625 Z"/>
  </g>
  <g id="Black-M" transform="matrix(1 0 0 1 2869.04 1126)">
   <path d="M 20.3613 -2.19727 L 55.2734 15.8691 C 61.4746 19.0918 67.2363 19.0918 73.4375 15.8691 L 108.35 -2.19727 C 114.111 -5.17578 116.26 -8.83789 116.26 -15.1367 L 116.26 -58.8867 C 116.26 -64.6484 114.014 -68.6035 108.447 -71.4355 L 75.1465 -88.8184 C 68.5547 -92.2852 60.1562 -92.2852 53.5645 -88.8184 L 20.2637 -71.4355 C 14.6973 -68.6035 12.4512 -64.6484 12.4512 -58.8867 L 12.4512 -15.1367 C 12.4512 -8.83789 14.5996 -5.17578 20.3613 -2.19727 Z"/>
  </g>
  <g id="Heavy-M" transform="matrix(1 0 0 1 2572.94 1126)">
   <path d="M 20.1172 -2.73438 L 54.7852 15.625 C 60.8887 18.8477 66.6016 18.8477 72.7051 15.625 L 107.373 -2.73438 C 112.793 -5.61523 115.039 -8.98438 115.039 -15.4785 L 115.039 -57.8613 C 115.039 -63.8672 112.744 -67.4316 107.52 -70.2148 L 74.0723 -88.0371 C 67.627 -91.4551 59.8633 -91.5039 53.418 -88.0371 L 19.9707 -70.2148 C 14.7461 -67.4316 12.4512 -63.8672 12.4512 -57.8613 L 12.4512 -15.4785 C 12.4512 -8.98438 14.6484 -5.61523 20.1172 -2.73438 Z"/>
  </g>
  <g id="Bold-M" transform="matrix(1 0 0 1 2276.92 1126)">
   <path d="M 19.8242 -3.32031 L 54.248 15.332 C 60.2539 18.5547 65.8691 18.5547 71.875 15.332 L 106.25 -3.32031 C 111.377 -6.10352 113.672 -9.17969 113.672 -15.8691 L 113.672 -56.7383 C 113.672 -62.9883 111.328 -66.1621 106.494 -68.7988 L 72.8516 -87.1582 C 66.6016 -90.5762 59.5215 -90.5762 53.2715 -87.1582 L 19.6289 -68.7988 C 14.7461 -66.1621 12.4512 -62.9883 12.4512 -56.7383 L 12.4512 -15.8691 C 12.4512 -9.17969 14.7461 -6.10352 19.8242 -3.32031 Z"/>
  </g>
  <g id="Semibold-M" transform="matrix(1 0 0 1 1980.69 1126)">
   <path d="M 19.6289 -3.71094 L 53.8574 15.1367 C 59.8145 18.4082 65.3809 18.4082 71.2891 15.1367 L 105.518 -3.71094 C 110.4 -6.44531 112.695 -9.32617 112.695 -16.1133 L 112.695 -55.9082 C 112.695 -62.3535 110.352 -65.2344 105.762 -67.8223 L 72.0215 -86.5234 C 65.8691 -89.9414 59.3262 -89.9414 53.1738 -86.5234 L 19.3848 -67.8223 C 14.7949 -65.2344 12.4512 -62.3535 12.4512 -55.9082 L 12.4512 -16.1133 C 12.4512 -9.32617 14.7461 -6.44531 19.6289 -3.71094 Z"/>
  </g>
  <g id="Medium-M" transform="matrix(1 0 0 1 1684.32 1126)">
   <path d="M 19.4824 -4.05273 L 53.6133 14.9902 C 59.4727 18.2617 64.9902 18.2617 70.8496 14.9902 L 104.932 -4.05273 C 109.668 -6.68945 112.012 -9.42383 112.012 -16.3086 L 112.012 -55.3223 C 112.012 -61.9141 109.619 -64.5996 105.225 -67.0898 L 71.3379 -86.084 C 65.332 -89.4531 59.1309 -89.4531 53.0762 -86.084 L 19.1895 -67.0898 C 14.8438 -64.5996 12.4512 -61.9141 12.4512 -55.3223 L 12.4512 -16.3086 C 12.4512 -9.42383 14.7949 -6.68945 19.4824 -4.05273 Z"/>
  </g>
  <g id="Regular-M" transform="matrix(1 0 0 1 1388.1 1126)">
   <path d="M 19.2871 -4.44336 L 53.2227 14.7949 C 58.9844 18.0664 64.502 18.0664 70.2637 14.7949 L 104.199 -4.44336 C 108.691 -7.03125 111.035 -9.57031 111.035 -16.5527 L 111.035 -54.541 C 111.035 -61.3281 108.643 -63.7207 104.541 -66.1133 L 70.5078 -85.4492 C 64.5996 -88.8184 58.9355 -88.8672 52.9785 -85.4492 L 18.9941 -66.1133 C 14.8438 -63.7207 12.4512 -61.3281 12.4512 -54.541 L 12.4512 -16.5527 C 12.4512 -9.57031 14.8438 -7.03125 19.2871 -4.44336 Z"/>
  </g>
  <g id="Light-M" transform="matrix(1 0 0 1 1091.9 1126)">
   <path d="M 18.457 -5.61523 L 54.3945 14.4531 C 58.9844 17.041 63.4766 17.041 68.0664 14.4531 L 104.004 -5.61523 C 108.057 -7.95898 110.01 -10.3027 110.01 -16.1133 L 110.01 -55.8105 C 110.01 -61.084 108.008 -63.1348 104.688 -65.0391 L 68.6035 -85.3516 C 63.7207 -88.1348 58.7891 -88.1348 53.8574 -85.3516 L 17.7246 -65.0391 C 14.4531 -63.1348 12.4512 -61.084 12.4512 -55.8105 L 12.4512 -16.1133 C 12.4512 -10.3027 14.4043 -7.95898 18.457 -5.61523 Z"/>
  </g>
  <g id="Thin-M" transform="matrix(1 0 0 1 795.9 1126)">
   <path d="M 17.334 -7.17773 L 55.9082 13.9648 C 58.9844 15.6738 62.1094 15.6738 65.1367 13.9648 L 103.711 -7.17773 C 107.275 -9.13086 108.594 -11.2305 108.594 -15.4785 L 108.594 -57.4707 C 108.594 -60.791 107.129 -62.3535 104.932 -63.623 L 66.0645 -85.2051 C 62.5 -87.207 58.5449 -87.2559 54.9805 -85.2051 L 16.1133 -63.623 C 13.916 -62.3535 12.4512 -60.791 12.4512 -57.4707 L 12.4512 -15.4785 C 12.4512 -11.2305 13.7695 -9.13086 17.334 -7.17773 Z"/>
  </g>
  <g id="Ultralight-M" transform="matrix(1 0 0 1 499.555 1126)">
   <path d="M 16.748 -7.95898 L 56.6895 13.7207 C 58.9844 14.9902 61.377 14.9902 63.623 13.7207 L 103.564 -7.95898 C 106.836 -9.76562 107.861 -11.7188 107.861 -15.1855 L 107.861 -58.3496 C 107.861 -60.5957 106.689 -61.9629 105.078 -62.8906 L 64.7461 -85.1074 C 61.8652 -86.7188 58.4473 -86.7676 55.5664 -85.1074 L 15.2344 -62.8906 C 13.623 -61.9629 12.4512 -60.5957 12.4512 -58.3496 L 12.4512 -15.1855 C 12.4512 -11.7188 13.4766 -9.76562 16.748 -7.95898 Z"/>
  </g>
  <g id="Black-S" transform="matrix(1 0 0 1 2883.01 696)">
   <path d="M 15.9668 -9.375 L 43.2617 4.78516 C 48.1445 7.32422 52.6367 7.32422 57.5195 4.78516 L 84.8145 -9.375 C 89.3066 -11.7188 91.0156 -14.5508 91.0156 -19.5312 L 91.0156 -53.6621 C 91.0156 -58.2031 89.2578 -61.2793 84.9121 -63.5254 L 58.8379 -77.1484 C 53.6621 -79.8828 47.1191 -79.8828 41.9434 -77.1484 L 15.8691 -63.5254 C 11.5234 -61.2793 9.76562 -58.2031 9.76562 -53.6621 L 9.76562 -19.5312 C 9.76562 -14.5508 11.4746 -11.7188 15.9668 -9.375 Z"/>
  </g>
  <g id="Heavy-S" transform="matrix(1 0 0 1 2586.71 696)">
   <path d="M 15.8691 -9.66797 L 42.7734 4.63867 C 47.7051 7.27539 52.2461 7.27539 57.1777 4.63867 L 84.082 -9.66797 C 88.3789 -11.9629 90.1855 -14.5996 90.1855 -19.8242 L 90.1855 -52.7344 C 90.1855 -57.6172 88.3789 -60.4492 84.1797 -62.6953 L 58.2031 -76.5625 C 53.0762 -79.3457 46.9238 -79.3457 41.748 -76.5625 L 15.7715 -62.6953 C 11.6211 -60.4492 9.76562 -57.6172 9.76562 -52.7344 L 9.76562 -19.8242 C 9.76562 -14.5996 11.5723 -11.9629 15.8691 -9.66797 Z"/>
  </g>
  <g id="Bold-S" transform="matrix(1 0 0 1 2290.47 696)">
   <path d="M 15.7715 -9.96094 L 42.1875 4.44336 C 47.2168 7.17773 51.8555 7.17773 56.8359 4.44336 L 83.3008 -9.96094 C 87.4023 -12.207 89.2578 -14.6484 89.2578 -20.166 L 89.2578 -51.709 C 89.2578 -56.9824 87.3535 -59.5703 83.3496 -61.7188 L 57.5195 -75.8789 C 52.3926 -78.7109 46.6797 -78.7109 41.5039 -75.8789 L 15.6738 -61.7188 C 11.6699 -59.5703 9.76562 -56.9824 9.76562 -51.709 L 9.76562 -20.166 C 9.76562 -14.6484 11.6699 -12.207 15.7715 -9.96094 Z"/>
  </g>
  <g id="Semibold-S" transform="matrix(1 0 0 1 1994.07 696)">
   <path d="M 15.6738 -10.1562 L 41.7969 4.3457 C 46.8262 7.12891 51.5625 7.12891 56.5918 4.3457 L 82.7148 -10.1562 C 86.6699 -12.4023 88.623 -14.6973 88.623 -20.4102 L 88.623 -50.9766 C 88.623 -56.543 86.6699 -58.9355 82.8125 -61.084 L 57.0312 -75.4395 C 51.9043 -78.3203 46.5332 -78.3203 41.3574 -75.4395 L 15.625 -61.084 C 11.7676 -58.9355 9.76562 -56.543 9.76562 -50.9766 L 9.76562 -20.4102 C 9.76562 -14.6973 11.7188 -12.4023 15.6738 -10.1562 Z"/>
  </g>
  <g id="Medium-S" transform="matrix(1 0 0 1 1697.61 696)">
   <path d="M 15.625 -10.3027 L 41.5039 4.24805 C 46.582 7.08008 51.3672 7.08008 56.3965 4.24805 L 82.3242 -10.3027 C 86.1328 -12.5 88.1348 -14.7461 88.1348 -20.6055 L 88.1348 -50.4395 C 88.1348 -56.2012 86.1328 -58.4473 82.373 -60.5957 L 56.6895 -75.0977 C 51.5625 -77.9785 46.4355 -77.9785 41.2598 -75.0977 L 15.5273 -60.5957 C 11.7676 -58.4473 9.76562 -56.2012 9.76562 -50.4395 L 9.76562 -20.6055 C 9.76562 -14.7461 11.7676 -12.5 15.625 -10.3027 Z"/>
  </g>
  <g id="Regular-S" transform="matrix(1 0 0 1 1401.19 696)">
   <path d="M 15.5273 -10.5469 L 41.1621 4.15039 C 46.2402 7.03125 51.0742 7.03125 56.1523 4.15039 L 81.7383 -10.5469 C 85.4492 -12.6953 87.5488 -14.7461 87.5488 -20.8496 L 87.5488 -49.7559 C 87.5488 -55.7617 85.4492 -57.8125 81.8359 -59.9609 L 56.2012 -74.6582 C 51.0742 -77.5879 46.2402 -77.5879 41.1133 -74.6582 L 15.4785 -59.9609 C 11.8652 -57.8125 9.76562 -55.7617 9.76562 -49.7559 L 9.76562 -20.8496 C 9.76562 -14.7461 11.8652 -12.6953 15.5273 -10.5469 Z"/>
  </g>
  <g id="Light-S" transform="matrix(1 0 0 1 1104.96 696)">
   <path d="M 14.7949 -11.5723 L 42.1875 3.80859 C 46.2402 6.10352 50.1465 6.10352 54.1992 3.80859 L 81.543 -11.5723 C 84.9121 -13.4766 86.5723 -15.4297 86.5723 -20.4102 L 86.5723 -50.8789 C 86.5723 -55.5664 84.8633 -57.3242 81.9824 -58.9844 L 54.4922 -74.5605 C 50.293 -76.9531 46.0938 -76.9531 41.8457 -74.5605 L 14.4043 -58.9844 C 11.4746 -57.3242 9.76562 -55.5664 9.76562 -50.8789 L 9.76562 -20.4102 C 9.76562 -15.4297 11.4258 -13.4766 14.7949 -11.5723 Z"/>
  </g>
  <g id="Thin-S" transform="matrix(1 0 0 1 808.864 696)">
   <path d="M 13.8184 -12.9395 L 43.5059 3.41797 C 46.2402 4.93164 48.9258 4.93164 51.6113 3.41797 L 81.2988 -12.9395 C 84.1797 -14.5508 85.3516 -16.2598 85.3516 -19.873 L 85.3516 -52.3438 C 85.3516 -55.3223 84.1309 -56.6406 82.1777 -57.7148 L 52.2461 -74.4141 C 49.2188 -76.123 45.9473 -76.1719 42.8711 -74.4141 L 12.9395 -57.7148 C 10.9863 -56.6406 9.76562 -55.3223 9.76562 -52.3438 L 9.76562 -19.873 C 9.76562 -16.2598 10.9375 -14.5508 13.8184 -12.9395 Z"/>
  </g>
  <g id="Ultralight-S" transform="matrix(1 0 0 1 512.47 696)">
   <path d="M 13.2812 -13.6719 L 44.2383 3.17383 C 46.2402 4.29688 48.291 4.29688 50.2441 3.17383 L 81.2012 -13.6719 C 83.8379 -15.0879 84.7168 -16.6992 84.7168 -19.5801 L 84.7168 -53.0762 C 84.7168 -55.1758 83.7402 -56.2988 82.2754 -57.0801 L 51.0742 -74.3164 C 48.6816 -75.6836 45.8008 -75.7324 43.4082 -74.3164 L 12.207 -57.0801 C 10.7422 -56.2988 9.76562 -55.1758 9.76562 -53.0762 L 9.76562 -19.5801 C 9.76562 -16.6992 10.6445 -15.0879 13.2812 -13.6719 Z"/>
  </g>
 </g>
</svg>
